<svg viewBox="0 0 75 66" fill="none" xmlns="http://www.w3.org/2000/svg">
    <path
        d="M0 9.375C0 6.8886 0.98772 4.50403 2.74587 2.74587C4.50403 0.98772 6.8886 0 9.375 0H65.625C68.1114 0 70.496 0.98772 72.2541 2.74587C74.0123 4.50403 75 6.8886 75 9.375V56.25C75 58.7364 74.0123 61.121 72.2541 62.8791C70.496 64.6373 68.1114 65.625 65.625 65.625H9.375C6.8886 65.625 4.50403 64.6373 2.74587 62.8791C0.98772 61.121 0 58.7364 0 56.25V9.375ZM44.5312 35.1562H30.4688C29.8471 35.1562 29.251 35.4032 28.8115 35.8427C28.3719 36.2823 28.125 36.8784 28.125 37.5C28.125 38.1216 28.3719 38.7177 28.8115 39.1573C29.251 39.5968 29.8471 39.8438 30.4688 39.8438H44.5312C45.1529 39.8438 45.749 39.5968 46.1885 39.1573C46.6281 38.7177 46.875 38.1216 46.875 37.5C46.875 36.8784 46.6281 36.2823 46.1885 35.8427C45.749 35.4032 45.1529 35.1562 44.5312 35.1562ZM14.7469 33.4969C14.529 33.7148 14.3561 33.9735 14.2382 34.2582C14.1202 34.5429 14.0595 34.8481 14.0595 35.1562C14.0595 35.4644 14.1202 35.7696 14.2382 36.0543C14.3561 36.339 14.529 36.5977 14.7469 36.8156C15.187 37.2557 15.7839 37.503 16.4062 37.503C16.7144 37.503 17.0196 37.4423 17.3043 37.3243C17.589 37.2064 17.8477 37.0335 18.0656 36.8156L27.4406 27.4406C27.6589 27.2229 27.8321 26.9643 27.9502 26.6795C28.0684 26.3948 28.1292 26.0895 28.1292 25.7812C28.1292 25.473 28.0684 25.1677 27.9502 24.883C27.8321 24.5982 27.6589 24.3396 27.4406 24.1219L18.0656 14.7469C17.8477 14.529 17.589 14.3561 17.3043 14.2382C17.0196 14.1202 16.7144 14.0595 16.4062 14.0595C16.0981 14.0595 15.7929 14.1202 15.5082 14.2382C15.2235 14.3561 14.9648 14.529 14.7469 14.7469C14.529 14.9648 14.3561 15.2235 14.2382 15.5082C14.1202 15.7929 14.0595 16.0981 14.0595 16.4062C14.0595 16.7144 14.1202 17.0196 14.2382 17.3043C14.3561 17.589 14.529 17.8477 14.7469 18.0656L22.4672 25.7812L14.7469 33.4969Z"
        fill="#047B6D" />
</svg>