<svg viewBox="0 0 75 75" fill="none" xmlns="http://www.w3.org/2000/svg">
<path d="M67.9922 11.789L54.4781 5.28279C53.7149 4.91482 52.8562 4.79339 52.0209 4.93533C51.1856 5.07728 50.4152 5.47556 49.8164 6.07498L5.57812 46.4062C5.04138 46.8933 4.72009 47.5736 4.68492 48.2975C4.64976 49.0214 4.9036 49.7296 5.39062 50.2664C5.44921 50.3297 5.5078 50.3906 5.57109 50.4469L9.1828 53.7281C9.65475 54.1576 10.2622 54.4083 10.8998 54.4366C11.5373 54.4648 12.1646 54.2689 12.6726 53.8828L65.9578 13.4765C66.3603 13.1711 66.84 12.9841 67.343 12.9366C67.846 12.889 68.3523 12.9828 68.8049 13.2074C69.2574 13.432 69.6383 13.7785 69.9047 14.2078C70.1711 14.6371 70.3123 15.1322 70.3125 15.6375V15.4805C70.3124 14.7091 70.0947 13.9535 69.6842 13.3004C69.2737 12.6474 68.6872 12.1235 67.9922 11.789Z" fill="#0065A9"/>
<path d="M67.9922 63.2109L54.4781 69.7195C53.7147 70.0864 52.8562 70.2073 52.0212 70.0654C51.1861 69.9235 50.4157 69.5258 49.8164 68.9273L5.57812 28.5937C5.04138 28.1067 4.72009 27.4264 4.68492 26.7025C4.64976 25.9786 4.9036 25.2703 5.39062 24.7336C5.44921 24.6703 5.5078 24.6093 5.57109 24.5531L9.1828 21.2718C9.65523 20.8405 10.2641 20.5887 10.9032 20.5605C11.5423 20.5322 12.171 20.7292 12.6797 21.1172L65.9578 61.5234C66.3603 61.8288 66.84 62.0158 67.343 62.0634C67.846 62.1109 68.3523 62.0171 68.8049 61.7925C69.2574 61.568 69.6383 61.2215 69.9047 60.7922C70.1711 60.3629 70.3123 59.8677 70.3125 59.3625V59.5312C70.31 60.3005 70.091 61.0535 69.6807 61.7042C69.2704 62.355 68.6852 62.8771 67.9922 63.2109Z" fill="#007ACC"/>
<path d="M54.4781 69.7195C53.7147 70.0864 52.8562 70.2073 52.0212 70.0654C51.1861 69.9235 50.4158 69.5258 49.8164 68.9273C50.153 69.2595 50.5801 69.485 51.0443 69.5754C51.5084 69.6659 51.989 69.6174 52.4257 69.436C52.8624 69.2545 53.2358 68.9482 53.4992 68.5555C53.7626 68.1627 53.9042 67.701 53.9063 67.2281V7.77185C53.9067 7.29674 53.766 6.83221 53.5022 6.4371C53.2384 6.04198 52.8632 5.73406 52.4242 5.55235C51.9852 5.37063 51.5022 5.32329 51.0363 5.41633C50.5704 5.50937 50.1426 5.7386 49.807 6.07497C50.4059 5.47577 51.1762 5.07746 52.0113 4.93512C52.8465 4.79279 53.7052 4.91345 54.4688 5.28044L67.9805 11.7773C68.6777 12.1101 69.2666 12.6333 69.6792 13.2865C70.0919 13.9396 70.3114 14.6961 70.3125 15.4687V59.5312C70.3127 60.3032 70.0948 61.0595 69.6838 61.713C69.2729 62.3665 68.6857 62.8907 67.9899 63.225L54.4781 69.7195Z" fill="#1F9CF0"/>
</svg>
