<svg viewBox="0 0 256 259" fill="none" xmlns="http://www.w3.org/2000/svg">
<g clip-path="url(#clip0_121_64)">
<path d="M127.779 0C60.42 0 5.24 52.412 0 119.014L68.724 147.688C74.7249 143.534 81.8517 141.313 89.15 141.322C89.832 141.322 90.506 141.341 91.17 141.378L121.736 96.668V96.042C121.736 69.139 143.426 47.246 170.089 47.246C196.751 47.246 218.441 69.139 218.441 96.042C218.441 122.944 196.751 144.846 170.089 144.846C169.719 144.846 169.359 144.837 168.991 144.828L125.398 176.205C125.426 176.787 125.444 177.368 125.444 177.94C125.444 198.144 109.161 214.576 89.15 214.576C71.584 214.576 56.887 201.918 53.566 185.164L4.41 164.654C19.633 218.967 69.083 258.786 127.779 258.786C198.597 258.786 256 200.848 256 129.393C256 57.93 198.597 0 127.779 0ZM80.352 196.332L64.603 189.764C67.39 195.631 72.224 200.539 78.636 203.234C92.493 209.064 108.472 202.431 114.248 188.435C117.044 181.705 117.061 174.142 114.294 167.4C111.526 160.61 106.295 155.314 99.588 152.491C92.918 149.696 85.777 149.797 79.503 152.187L95.778 158.977C106 163.277 110.834 175.122 106.572 185.437C102.319 195.751 90.574 200.632 80.352 196.332V196.332ZM202.309 96.042C202.309 78.117 187.852 63.522 170.092 63.522C152.323 63.522 137.866 78.117 137.866 96.042C137.866 113.968 152.323 128.554 170.092 128.554C187.852 128.554 202.309 113.968 202.309 96.042V96.042ZM145.939 95.987C145.939 82.499 156.779 71.567 170.139 71.567C183.507 71.567 194.347 82.499 194.347 95.987C194.347 109.475 183.507 120.408 170.138 120.408C156.779 120.408 145.938 109.475 145.938 95.988L145.939 95.987Z" fill="#1A1918"/>
</g>
<defs>
<clipPath id="clip0_121_64">
<rect width="256" height="259" fill="white"/>
</clipPath>
</defs>
</svg>
