<svg viewBox="0 0 256 239" fill="none" xmlns="http://www.w3.org/2000/svg">
<g clip-path="url(#clip0_121_41)">
<path d="M178.563 89.302H244.688C250.936 89.302 256 94.367 256 100.614V160.845C256 183.805 237.387 202.419 214.427 202.419H214.23C191.27 202.422 172.654 183.812 172.651 160.851V95.215C172.651 94.4385 172.804 93.6697 173.101 92.9523C173.398 92.2349 173.833 91.583 174.382 91.0339C174.931 90.4848 175.583 90.0493 176.3 89.7521C177.018 89.455 177.787 89.302 178.563 89.302V89.302Z" fill="#5059C9"/>
<path d="M223.256 77.396C238.052 77.396 250.047 65.4013 250.047 50.605C250.047 35.8087 238.052 23.814 223.256 23.814C208.46 23.814 196.465 35.8087 196.465 50.605C196.465 65.4013 208.46 77.396 223.256 77.396Z" fill="#5059C9"/>
<path d="M139.907 77.396C161.279 77.396 178.605 60.0703 178.605 38.698C178.605 17.3257 161.279 0 139.907 0C118.535 0 101.209 17.3257 101.209 38.698C101.209 60.0703 118.535 77.396 139.907 77.396Z" fill="#7B83EB"/>
<path d="M191.506 89.302H82.355C76.182 89.455 71.299 94.578 71.442 100.751V169.448C70.58 206.492 99.887 237.233 136.93 238.14C173.973 237.233 203.28 206.492 202.419 169.448V100.751C202.562 94.578 197.679 89.455 191.506 89.302V89.302Z" fill="#7B83EB"/>
<path opacity="0.1" d="M142.884 89.302V185.57C142.87 187.729 142.218 189.836 141.01 191.626C139.803 193.416 138.094 194.81 136.097 195.632C134.797 196.182 133.4 196.465 131.989 196.465H76.68C75.906 194.5 75.192 192.535 74.596 190.512C72.512 183.68 71.4489 176.578 71.441 169.436V100.733C71.298 94.57 76.173 89.455 82.336 89.303H142.883L142.884 89.302Z" fill="black"/>
<path opacity="0.2" d="M136.93 89.302V191.524C136.93 192.935 136.647 194.332 136.097 195.632C135.275 197.629 133.881 199.338 132.091 200.545C130.301 201.753 128.194 202.405 126.035 202.419H79.48C78.468 200.454 77.515 198.489 76.682 196.465C75.8818 194.519 75.1861 192.532 74.598 190.512C72.514 183.68 71.4509 176.578 71.443 169.436V100.733C71.3 94.57 76.175 89.455 82.338 89.303H136.931L136.93 89.302Z" fill="black"/>
<path opacity="0.2" d="M136.93 89.302V179.617C136.885 185.615 132.034 190.467 126.035 190.512H74.597C72.513 183.68 71.4499 176.578 71.442 169.436V100.733C71.299 94.57 76.174 89.455 82.337 89.303H136.93V89.302Z" fill="black"/>
<path opacity="0.2" d="M130.977 89.302V179.617C130.931 185.615 126.08 190.467 120.082 190.512H74.597C72.513 183.68 71.4499 176.578 71.442 169.436V100.733C71.299 94.57 76.174 89.455 82.337 89.303H130.977V89.302Z" fill="black"/>
<path opacity="0.1" d="M142.884 58.523V77.276C141.872 77.336 140.919 77.396 139.907 77.396C138.895 77.396 137.942 77.336 136.93 77.276C134.921 77.1428 132.928 76.8241 130.977 76.324C125.034 74.9165 119.508 72.1222 114.851 68.1695C110.195 64.2168 106.54 59.218 104.186 53.582C103.364 51.6619 102.727 49.6683 102.281 47.628H131.989C137.996 47.651 142.861 52.515 142.884 58.523V58.523Z" fill="black"/>
<path opacity="0.2" d="M136.93 64.476V77.276C134.921 77.1428 132.928 76.8241 130.977 76.324C125.034 74.9164 119.508 72.122 114.852 68.1693C110.195 64.2166 106.541 59.2179 104.187 53.582H126.035C132.043 53.604 136.907 58.469 136.93 64.476Z" fill="black"/>
<path opacity="0.2" d="M136.93 64.476V77.276C134.921 77.1428 132.928 76.8241 130.977 76.324C125.034 74.9164 119.508 72.122 114.852 68.1693C110.195 64.2166 106.541 59.2179 104.187 53.582H126.035C132.043 53.604 136.907 58.469 136.93 64.476Z" fill="black"/>
<path opacity="0.2" d="M130.977 64.476V76.324C125.033 74.9164 119.507 72.1219 114.851 68.169C110.195 64.2162 106.54 59.2172 104.186 53.581H120.082C126.09 53.604 130.954 58.469 130.977 64.476Z" fill="black"/>
<path d="M10.913 53.581H120.063C126.091 53.581 130.977 58.467 130.977 64.494V173.645C130.977 179.672 126.091 184.558 120.064 184.558H10.913C4.886 184.558 0 179.672 0 173.645V64.495C0 58.466 4.886 53.58 10.913 53.58V53.581Z" fill="url(#paint0_linear_121_41)"/>
<path d="M94.208 95.125H72.388V154.541H58.487V95.125H36.769V83.599H94.208V95.125Z" fill="white"/>
</g>
<defs>
<linearGradient id="paint0_linear_121_41" x1="22.7533" y1="45.0533" x2="108.225" y2="193.084" gradientUnits="userSpaceOnUse">
<stop stop-color="#5A62C3"/>
<stop offset="0.5" stop-color="#4D55BD"/>
<stop offset="1" stop-color="#3940AB"/>
</linearGradient>
<clipPath id="clip0_121_41">
<rect width="256" height="239" fill="white"/>
</clipPath>
</defs>
</svg>
