<svg viewBox="0 0 256 250" fill="none" xmlns="http://www.w3.org/2000/svg">
<g clip-path="url(#clip0_121_3)">
<path d="M213.5 0H42.5C19.0279 0 0 19.0279 0 42.5V207.1C0 230.572 19.0279 249.6 42.5 249.6H213.5C236.972 249.6 256 230.572 256 207.1V42.5C256 19.0279 236.972 0 213.5 0Z" fill="#470137"/>
<path d="M134.578 65.64L102.635 118.363L136.81 174.348C137.03 174.74 137.091 175.2 136.982 175.636C136.929 175.822 136.815 175.868 136.64 175.875L136.446 175.872L136.21 175.866C136.082 175.866 135.939 175.872 135.78 175.898H111.14L110.656 175.89C109.328 175.855 108.371 175.665 107.788 174.691C105.508 170.249 103.218 165.813 100.918 161.382C98.8606 157.43 96.747 153.507 94.578 149.615L93.62 147.901C91.0257 143.29 88.4783 138.653 85.978 133.991H85.806C83.497 138.605 81.1211 143.184 78.679 147.729C76.216 152.309 73.783 156.861 71.38 161.382C68.9756 165.907 66.5141 170.401 63.996 174.863C63.591 175.773 62.918 175.963 61.981 175.994L61.591 176H38.064L37.962 176.003L37.626 176.033C37.439 176.044 37.327 176.004 37.291 175.722C37.2265 175.303 37.3183 174.875 37.549 174.52L70.693 120.08L38.407 65.47C38.064 65.014 38.007 64.642 38.235 64.354C38.3617 64.2073 38.5209 64.0921 38.6998 64.0175C38.8787 63.9428 39.0726 63.9108 39.266 63.924H63.48C64.0081 63.8951 64.536 63.9832 65.026 64.182C65.436 64.415 65.789 64.738 66.056 65.127C68.117 69.707 70.407 74.287 72.926 78.865C75.4255 83.4142 77.9729 87.9367 80.568 92.432C83.1233 96.8577 85.5009 101.384 87.695 105.999H87.867C90.1156 101.385 92.4342 96.8049 94.822 92.261C97.167 87.796 99.572 83.301 102.034 78.779C104.465 74.315 106.841 69.8214 109.161 65.299C109.293 64.875 109.529 64.491 109.848 64.182C110.272 63.9673 110.749 63.8778 111.222 63.924H133.719C133.926 63.8725 134.144 63.8895 134.34 63.9725C134.536 64.0554 134.701 64.2 134.808 64.3842C134.915 64.5685 134.959 64.7826 134.934 64.9943C134.909 65.206 134.816 65.4038 134.669 65.558L134.579 65.642L134.578 65.64ZM185.048 178.113L183.864 178.126C175.959 178.246 168.127 176.604 160.937 173.318C154.239 170.218 148.64 165.157 144.88 158.806C141.089 152.51 139.143 144.664 139.045 135.271L139.041 134.506C138.977 126.624 140.991 118.864 144.881 112.009C148.774 105.224 154.45 99.6332 161.293 95.843L161.882 95.523C169.322 91.401 178.31 89.34 188.844 89.34L189.304 89.345L189.83 89.362L190.42 89.388L191.076 89.426L192.178 89.504L193.426 89.604L194.339 89.684V55.852C194.339 55.052 194.683 54.65 195.369 54.65H217.008C217.148 54.63 217.291 54.6428 217.425 54.6874C217.559 54.7321 217.681 54.8074 217.781 54.9073C217.881 55.0073 217.956 55.1292 218.001 55.2633C218.045 55.3974 218.058 55.5401 218.038 55.68V157.175C218.038 158.879 218.104 160.715 218.236 162.679L218.556 167.134L218.726 169.711C218.747 170.068 218.66 170.423 218.476 170.729C218.292 171.036 218.02 171.28 217.695 171.429C212.113 173.757 206.298 175.484 200.35 176.58C195.3 177.512 190.182 178.025 185.048 178.113V178.113ZM194.339 156.831V109.948C193.411 109.697 192.463 109.524 191.506 109.433C190.336 109.315 189.161 109.258 187.985 109.261C183.818 109.22 179.699 110.161 175.964 112.009C172.326 113.818 169.219 116.54 166.948 119.909C164.681 123.225 163.508 127.555 163.431 132.899L163.427 133.476C163.343 137.219 163.955 140.946 165.23 144.466C166.268 147.303 167.909 149.881 170.04 152.023C172.079 153.993 174.548 155.463 177.252 156.316C180.108 157.241 183.094 157.705 186.096 157.691C187.698 157.691 189.186 157.633 190.561 157.518C191.658 157.436 192.745 157.255 193.809 156.978L194.339 156.831V156.831Z" fill="#FF61F6"/>
</g>
<defs>
<clipPath id="clip0_121_3">
<rect width="256" height="250" fill="white"/>
</clipPath>
</defs>
</svg>
