<svg viewBox="0 0 53 53" fill="none" xmlns="http://www.w3.org/2000/svg">
<path d="M26.5 34.2292C26.2094 34.2308 25.9213 34.1751 25.6523 34.0652C25.3832 33.9553 25.1385 33.7934 24.9321 33.5887L16.0988 24.7554C15.8929 24.5495 15.7296 24.3051 15.6181 24.036C15.5067 23.767 15.4493 23.4787 15.4493 23.1875C15.4493 22.8963 15.5067 22.608 15.6181 22.3389C15.7296 22.0699 15.8929 21.8255 16.0988 21.6196C16.3047 21.4137 16.5491 21.2503 16.8182 21.1389C17.0872 21.0275 17.3755 20.9701 17.6667 20.9701C17.9579 20.9701 18.2462 21.0275 18.5153 21.1389C18.7843 21.2503 19.0287 21.4137 19.2346 21.6196L26.5 28.9292L33.7875 21.9067C33.9907 21.6808 34.2383 21.4992 34.5148 21.3734C34.7913 21.2475 35.0908 21.1801 35.3946 21.1753C35.6983 21.1705 35.9998 21.2284 36.2802 21.3454C36.5605 21.4624 36.8137 21.636 37.0239 21.8554C37.2341 22.0747 37.3968 22.3351 37.5018 22.6202C37.6068 22.9052 37.6518 23.2089 37.6341 23.5122C37.6164 23.8155 37.5363 24.1119 37.3988 24.3828C37.2613 24.6537 37.0694 24.8933 36.835 25.0867L28.0017 33.6108C27.5979 34.0002 27.061 34.2213 26.5 34.2292Z" fill="white"/>
</svg>
