<svg viewBox="0 0 53 53" fill="none" xmlns="http://www.w3.org/2000/svg">
<path d="M35.3334 32.0208C35.0427 32.0225 34.7546 31.9668 34.4856 31.8569C34.2165 31.747 33.9718 31.5851 33.7654 31.3804L26.5 24.0708L19.2125 31.0933C18.7988 31.5046 18.2391 31.7355 17.6557 31.7355C17.0722 31.7355 16.5125 31.5046 16.0988 31.0933C15.8918 30.888 15.7275 30.6438 15.6154 30.3747C15.5033 30.1056 15.4456 29.8169 15.4456 29.5254C15.4456 29.2339 15.5033 28.9452 15.6154 28.6761C15.7275 28.407 15.8918 28.1628 16.0988 27.9575L24.9321 19.4333C25.3449 19.0287 25.8999 18.8021 26.4779 18.8021C27.056 18.8021 27.611 19.0287 28.0238 19.4333L36.8571 28.2667C37.0641 28.472 37.2284 28.7162 37.3405 28.9853C37.4526 29.2544 37.5103 29.5431 37.5103 29.8346C37.5103 30.1261 37.4526 30.4147 37.3405 30.6839C37.2284 30.953 37.0641 31.1972 36.8571 31.4025C36.4477 31.7971 35.9019 32.0186 35.3334 32.0208Z" fill="white"/>
</svg>
