<svg viewBox="0 0 111 111" fill="none" xmlns="http://www.w3.org/2000/svg">
<path d="M92.5 27.75H50.875L41.625 18.5H18.5C13.4125 18.5 9.25 22.6625 9.25 27.75V46.25H101.75V37C101.75 31.9125 97.5875 27.75 92.5 27.75Z" fill="#FFA000"/>
<path d="M92.5 27.75H18.5C13.4125 27.75 9.25 31.9125 9.25 37V83.25C9.25 88.3375 13.4125 92.5 18.5 92.5H92.5C97.5875 92.5 101.75 88.3375 101.75 83.25V37C101.75 31.9125 97.5875 27.75 92.5 27.75Z" fill="#FFCA28"/>
<path d="M75.25 72.75H81.75V84.125H75.25V72.75Z" fill="white"/>
<path d="M92.1824 66.5425L79.6537 53.7375C79.5026 53.5852 79.3229 53.4643 79.1249 53.3818C78.9269 53.2993 78.7145 53.2568 78.4999 53.2568C78.2854 53.2568 78.073 53.2993 77.875 53.3818C77.677 53.4643 77.4973 53.5852 77.3462 53.7375L64.8174 66.5587C64.5143 66.8644 64.2748 67.2271 64.1131 67.6261C63.9513 68.025 63.8703 68.452 63.8749 68.8825V82.5C63.8737 83.3319 64.1914 84.1325 64.7628 84.7371C65.3342 85.3417 66.1156 85.7042 66.9462 85.75H71.9999V71.125C71.9999 70.694 72.1711 70.2807 72.4759 69.9759C72.7806 69.6712 73.194 69.5 73.6249 69.5H83.3749C83.8059 69.5 84.2192 69.6712 84.524 69.9759C84.8287 70.2807 84.9999 70.694 84.9999 71.125V85.75H90.0537C90.8843 85.7042 91.6657 85.3417 92.2371 84.7371C92.8084 84.1325 93.1262 83.3319 93.1249 82.5V68.8825C93.1262 68.0098 92.7883 67.1707 92.1824 66.5425V66.5425Z" fill="white"/>
</svg>
