<svg viewBox="0 0 111 111" fill="none" xmlns="http://www.w3.org/2000/svg">
<path d="M92.5 27.75H50.875L41.625 18.5H18.5C13.4125 18.5 9.25 22.6625 9.25 27.75V46.25H101.75V37C101.75 31.9125 97.5875 27.75 92.5 27.75Z" fill="#FFA000"/>
<path d="M92.5 27.75H18.5C13.4125 27.75 9.25 31.9125 9.25 37V83.25C9.25 88.3375 13.4125 92.5 18.5 92.5H92.5C97.5875 92.5 101.75 88.3375 101.75 83.25V37C101.75 31.9125 97.5875 27.75 92.5 27.75Z" fill="#FFCA28"/>
<path d="M89.8751 74.375V56.5C89.874 56.2559 89.8179 56.0152 89.711 55.7958C89.6041 55.5764 89.4491 55.3838 89.2576 55.2325C89.0688 55.0798 88.8482 54.9713 88.612 54.9151C88.3758 54.8588 88.1299 54.8562 87.8926 54.9075L73.2676 58.1575C72.9065 58.2389 72.5841 58.4411 72.3536 58.7307C72.1231 59.0203 71.9984 59.3799 72.0001 59.75V73.3025C70.8907 72.7788 69.6415 72.6289 68.4398 72.8753C67.238 73.1217 66.1486 73.7512 65.3349 74.6692C64.5212 75.5872 64.0271 76.7444 63.9267 77.967C63.8264 79.1896 64.1252 80.4118 64.7783 81.4503C65.4314 82.4887 66.4036 83.2874 67.549 83.7265C68.6945 84.1656 69.9515 84.2214 71.1314 83.8856C72.3113 83.5498 73.3505 82.8405 74.0931 81.8641C74.8357 80.8876 75.2416 79.6967 75.2501 78.47C75.2669 78.1886 75.2669 77.9064 75.2501 77.625V61.05L86.6251 58.5312V70.0525C85.5151 69.5285 84.2651 69.3787 83.0628 69.6257C81.8604 69.8726 80.7707 70.503 79.9572 71.4221C79.1436 72.3413 78.6503 73.4995 78.5512 74.723C78.452 75.9464 78.7525 77.169 79.4075 78.2071C80.0624 79.2452 81.0365 80.0427 82.1834 80.48C83.3303 80.9173 84.5881 80.9708 85.7679 80.6322C86.9478 80.2937 87.986 79.5816 88.7265 78.6027C89.4671 77.6239 89.8701 76.4312 89.8751 75.2037C89.8905 74.9277 89.8905 74.651 89.8751 74.375V74.375Z" fill="white"/>
</svg>
