<svg viewBox="0 0 111 111" fill="none" xmlns="http://www.w3.org/2000/svg">
<path d="M92.5 27.75H50.875L41.625 18.5H18.5C13.4125 18.5 9.25 22.6625 9.25 27.75V46.25H101.75V37C101.75 31.9125 97.5875 27.75 92.5 27.75Z" fill="#FFA000"/>
<path d="M92.5 27.75H18.5C13.4125 27.75 9.25 31.9125 9.25 37V83.25C9.25 88.3375 13.4125 92.5 18.5 92.5H92.5C97.5875 92.5 101.75 88.3375 101.75 83.25V37C101.75 31.9125 97.5875 27.75 92.5 27.75Z" fill="#FFCA28"/>
<path d="M89.875 79.25H67.125C66.2275 79.25 65.5 79.9775 65.5 80.875C65.5 81.7725 66.2275 82.5 67.125 82.5H89.875C90.7725 82.5 91.5 81.7725 91.5 80.875C91.5 79.9775 90.7725 79.25 89.875 79.25Z" fill="white"/>
<path d="M65.5 77.625V80.875C65.5 81.7725 66.2275 82.5 67.125 82.5C68.0225 82.5 68.75 81.7725 68.75 80.875V77.625C68.75 76.7275 68.0225 76 67.125 76C66.2275 76 65.5 76.7275 65.5 77.625Z" fill="white"/>
<path d="M88.25 77.625V80.875C88.25 81.7725 88.9775 82.5 89.875 82.5C90.7725 82.5 91.5 81.7725 91.5 80.875V77.625C91.5 76.7275 90.7725 76 89.875 76C88.9775 76 88.25 76.7275 88.25 77.625Z" fill="white"/>
<path d="M78.4999 74.375C78.163 74.3776 77.8336 74.2753 77.5574 74.0825L71.0574 69.5C70.707 69.2515 70.4693 68.8744 70.3963 68.4511C70.3232 68.0278 70.4206 67.5929 70.6674 67.2413C70.7905 67.0655 70.9473 66.9159 71.1285 66.8011C71.3098 66.6862 71.5121 66.6084 71.7236 66.5722C71.9351 66.5359 72.1517 66.5419 72.3609 66.5898C72.5701 66.6377 72.7677 66.7266 72.9424 66.8513L78.4999 70.735L84.0249 66.575C84.3696 66.3164 84.803 66.2054 85.2297 66.2663C85.6563 66.3273 86.0413 66.5552 86.2999 66.9C86.5584 67.2448 86.6695 67.6782 86.6085 68.1048C86.5476 68.5315 86.3196 68.9164 85.9749 69.175L79.4749 74.05C79.1936 74.261 78.8515 74.375 78.4999 74.375V74.375Z" fill="white"/>
<path d="M78.5 71.125C78.069 71.125 77.6557 70.9538 77.351 70.649C77.0462 70.3443 76.875 69.931 76.875 69.5V56.5C76.875 56.069 77.0462 55.6557 77.351 55.351C77.6557 55.0462 78.069 54.875 78.5 54.875C78.931 54.875 79.3443 55.0462 79.649 55.351C79.9538 55.6557 80.125 56.069 80.125 56.5V69.5C80.125 69.931 79.9538 70.3443 79.649 70.649C79.3443 70.9538 78.931 71.125 78.5 71.125Z" fill="white"/>
</svg>
