<svg viewBox="0 0 111 111" fill="none" xmlns="http://www.w3.org/2000/svg">
<path d="M92.5 27.75H50.875L41.625 18.5H18.5C13.4125 18.5 9.25 22.6625 9.25 27.75V46.25H101.75V37C101.75 31.9125 97.5875 27.75 92.5 27.75Z" fill="#FFA000"/>
<path d="M92.5 27.75H18.5C13.4125 27.75 9.25 31.9125 9.25 37V83.25C9.25 88.3375 13.4125 92.5 18.5 92.5H92.5C97.5875 92.5 101.75 88.3375 101.75 83.25V37C101.75 31.9125 97.5875 27.75 92.5 27.75Z" fill="#FFCA28"/>
<path d="M88.6725 54.875H68.3275C67.1466 54.875 66.0141 55.3441 65.1791 56.1791C64.3441 57.0141 63.875 58.1466 63.875 59.3275V79.6725C63.875 80.8534 64.3441 81.9859 65.1791 82.8209C66.0141 83.6559 67.1466 84.125 68.3275 84.125H88.6725C89.8534 84.125 90.9859 83.6559 91.8209 82.8209C92.6559 81.9859 93.125 80.8534 93.125 79.6725V59.3275C93.125 58.1466 92.6559 57.0141 91.8209 56.1791C90.9859 55.3441 89.8534 54.875 88.6725 54.875V54.875ZM70.375 67.875H67.125V64.625H70.375V67.875ZM67.125 71.125H70.375V74.375H67.125V71.125ZM89.875 67.875H86.625V64.625H89.875V67.875ZM86.625 71.125H89.875V74.375H86.625V71.125ZM89.875 59.3275V61.375H86.625V58.125H88.6725C88.8304 58.125 88.9868 58.1561 89.1327 58.2165C89.2786 58.277 89.4111 58.3655 89.5228 58.4772C89.6345 58.5889 89.723 58.7214 89.7835 58.8673C89.8439 59.0132 89.875 59.1696 89.875 59.3275V59.3275ZM68.3275 58.125H70.375V61.375H67.125V59.3275C67.125 59.1696 67.1561 59.0132 67.2165 58.8673C67.277 58.7214 67.3655 58.5889 67.4772 58.4772C67.5889 58.3655 67.7214 58.277 67.8673 58.2165C68.0132 58.1561 68.1696 58.125 68.3275 58.125ZM67.125 79.6725V77.625H70.375V80.875H68.3275C68.1696 80.875 68.0132 80.8439 67.8673 80.7835C67.7214 80.723 67.5889 80.6345 67.4772 80.5228C67.3655 80.4111 67.277 80.2786 67.2165 80.1327C67.1561 79.9868 67.125 79.8304 67.125 79.6725V79.6725ZM89.875 79.6725C89.875 79.9914 89.7483 80.2973 89.5228 80.5228C89.2973 80.7483 88.9914 80.875 88.6725 80.875H86.625V77.625H89.875V79.6725Z" fill="white"/>
</svg>
