<svg viewBox="0 0 60 60" fill="none" xmlns="http://www.w3.org/2000/svg">
    <path
        d="M39.575 15H10.425C8.9015 15.0903 7.4757 15.78 6.45917 16.9183C5.44264 18.0566 4.91802 19.5511 4.99998 21.075V38.925C4.91802 40.4489 5.44264 41.9434 6.45917 43.0817C7.4757 44.22 8.9015 44.9097 10.425 45H39.575C41.0985 44.9097 42.5243 44.22 43.5408 43.0817C44.5573 41.9434 45.0819 40.4489 45 38.925V21.075C45.0819 19.5511 44.5573 18.0566 43.5408 16.9183C42.5243 15.78 41.0985 15.0903 39.575 15ZM52.5 22.5C51.8369 22.5 51.2011 22.7634 50.7322 23.2322C50.2634 23.7011 50 24.337 50 25V35C50 35.663 50.2634 36.2989 50.7322 36.7678C51.2011 37.2366 51.8369 37.5 52.5 37.5C53.163 37.5 53.7989 37.2366 54.2677 36.7678C54.7366 36.2989 55 35.663 55 35V25C55 24.337 54.7366 23.7011 54.2677 23.2322C53.7989 22.7634 53.163 22.5 52.5 22.5Z"
        fill="white" />
</svg>