<svg viewBox="0 0 24 24" fill="none" xmlns="http://www.w3.org/2000/svg">
<path d="M10 14H14V21H10V14Z" fill="white"/>
<path d="M20.4201 10.18L12.7101 2.3C12.6172 2.20627 12.5066 2.13188 12.3847 2.08111C12.2628 2.03034 12.1321 2.0042 12.0001 2.0042C11.8681 2.0042 11.7374 2.03034 11.6155 2.08111C11.4937 2.13188 11.3831 2.20627 11.2901 2.3L3.58012 10.19C3.39355 10.3781 3.24621 10.6013 3.14664 10.8468C3.04708 11.0923 2.99727 11.3551 3.00012 11.62V20C2.99934 20.5119 3.19489 21.0046 3.54649 21.3767C3.89809 21.7488 4.37898 21.9718 4.89012 22H8.00012V13C8.00012 12.7348 8.10547 12.4804 8.29301 12.2929C8.48055 12.1054 8.7349 12 9.00012 12H15.0001C15.2653 12 15.5197 12.1054 15.7072 12.2929C15.8948 12.4804 16.0001 12.7348 16.0001 13V22H19.1101C19.6213 21.9718 20.1021 21.7488 20.4537 21.3767C20.8053 21.0046 21.0009 20.5119 21.0001 20V11.62C21.0009 11.0829 20.7929 10.5666 20.4201 10.18V10.18Z" fill="white"/>
</svg>
