<svg viewBox="0 0 60 60" fill="none" xmlns="http://www.w3.org/2000/svg">
<path d="M49.3625 12.5C50.8543 12.5 52.2851 13.0926 53.34 14.1475C54.3949 15.2024 54.9875 16.6332 54.9875 18.125V41.8875C54.9875 43.3793 54.3949 44.8101 53.34 45.865C52.2851 46.9199 50.8543 47.5125 49.3625 47.5125H10.625C9.88631 47.5125 9.15486 47.367 8.47241 47.0843C7.78995 46.8016 7.16985 46.3873 6.64752 45.865C6.12519 45.3426 5.71086 44.7225 5.42818 44.0401C5.14549 43.3576 5 42.6262 5 41.8875V18.125C5 16.6332 5.59263 15.2024 6.64752 14.1475C7.70242 13.0926 9.13316 12.5 10.625 12.5H49.3625V12.5ZM49.3625 16.25H10.625C10.1277 16.25 9.65081 16.4475 9.29917 16.7992C8.94754 17.1508 8.75 17.6277 8.75 18.125V41.8875C8.75 42.9225 9.59 43.7625 10.625 43.7625H49.3625C49.8598 43.7625 50.3367 43.565 50.6883 43.2133C51.04 42.8617 51.2375 42.3848 51.2375 41.8875V18.125C51.2375 17.6277 51.04 17.1508 50.6883 16.7992C50.3367 16.4475 49.8598 16.25 49.3625 16.25V16.25ZM16.875 36.25H43.125C43.6001 36.2501 44.0574 36.4306 44.4045 36.7549C44.7516 37.0793 44.9627 37.5232 44.9951 37.9972C45.0274 38.4712 44.8787 38.9397 44.5789 39.3082C44.2791 39.6768 43.8506 39.9177 43.38 39.9825L43.125 40H16.875C16.3999 39.9999 15.9426 39.8194 15.5955 39.4951C15.2484 39.1707 15.0373 38.7268 15.0049 38.2528C14.9726 37.7788 15.1213 37.3103 15.4211 36.9418C15.7209 36.5732 16.1494 36.3323 16.62 36.2675L16.875 36.25H43.125H16.875V36.25ZM41.25 27.5C41.913 27.5 42.5489 27.7634 43.0178 28.2322C43.4866 28.7011 43.75 29.337 43.75 30C43.75 30.663 43.4866 31.2989 43.0178 31.7678C42.5489 32.2366 41.913 32.5 41.25 32.5C40.587 32.5 39.9511 32.2366 39.4822 31.7678C39.0134 31.2989 38.75 30.663 38.75 30C38.75 29.337 39.0134 28.7011 39.4822 28.2322C39.9511 27.7634 40.587 27.5 41.25 27.5ZM26.2625 27.5C26.9255 27.5 27.5614 27.7634 28.0303 28.2322C28.4991 28.7011 28.7625 29.337 28.7625 30C28.7625 30.663 28.4991 31.2989 28.0303 31.7678C27.5614 32.2366 26.9255 32.5 26.2625 32.5C25.5995 32.5 24.9636 32.2366 24.4947 31.7678C24.0259 31.2989 23.7625 30.663 23.7625 30C23.7625 29.337 24.0259 28.7011 24.4947 28.2322C24.9636 27.7634 25.5995 27.5 26.2625 27.5V27.5ZM18.7625 27.5C19.4255 27.5 20.0614 27.7634 20.5303 28.2322C20.9991 28.7011 21.2625 29.337 21.2625 30C21.2625 30.663 20.9991 31.2989 20.5303 31.7678C20.0614 32.2366 19.4255 32.5 18.7625 32.5C18.0995 32.5 17.4636 32.2366 16.9947 31.7678C16.5259 31.2989 16.2625 30.663 16.2625 30C16.2625 29.337 16.5259 28.7011 16.9947 28.2322C17.4636 27.7634 18.0995 27.5 18.7625 27.5ZM33.7625 27.5C34.4255 27.5 35.0614 27.7634 35.5303 28.2322C35.9991 28.7011 36.2625 29.337 36.2625 30C36.2625 30.663 35.9991 31.2989 35.5303 31.7678C35.0614 32.2366 34.4255 32.5 33.7625 32.5C33.0995 32.5 32.4636 32.2366 31.9947 31.7678C31.5259 31.2989 31.2625 30.663 31.2625 30C31.2625 29.337 31.5259 28.7011 31.9947 28.2322C32.4636 27.7634 33.0995 27.5 33.7625 27.5V27.5ZM15 20C15.663 20 16.2989 20.2634 16.7678 20.7322C17.2366 21.2011 17.5 21.837 17.5 22.5C17.5 23.163 17.2366 23.7989 16.7678 24.2678C16.2989 24.7366 15.663 25 15 25C14.337 25 13.7011 24.7366 13.2322 24.2678C12.7634 23.7989 12.5 23.163 12.5 22.5C12.5 21.837 12.7634 21.2011 13.2322 20.7322C13.7011 20.2634 14.337 20 15 20ZM22.4875 20C23.1505 20 23.7864 20.2634 24.2553 20.7322C24.7241 21.2011 24.9875 21.837 24.9875 22.5C24.9875 23.163 24.7241 23.7989 24.2553 24.2678C23.7864 24.7366 23.1505 25 22.4875 25C21.8245 25 21.1886 24.7366 20.7197 24.2678C20.2509 23.7989 19.9875 23.163 19.9875 22.5C19.9875 21.837 20.2509 21.2011 20.7197 20.7322C21.1886 20.2634 21.8245 20 22.4875 20V20ZM29.9875 20C30.6505 20 31.2864 20.2634 31.7553 20.7322C32.2241 21.2011 32.4875 21.837 32.4875 22.5C32.4875 23.163 32.2241 23.7989 31.7553 24.2678C31.2864 24.7366 30.6505 25 29.9875 25C29.3245 25 28.6886 24.7366 28.2197 24.2678C27.7509 23.7989 27.4875 23.163 27.4875 22.5C27.4875 21.837 27.7509 21.2011 28.2197 20.7322C28.6886 20.2634 29.3245 20 29.9875 20V20ZM37.4875 20C38.1505 20 38.7864 20.2634 39.2553 20.7322C39.7241 21.2011 39.9875 21.837 39.9875 22.5C39.9875 23.163 39.7241 23.7989 39.2553 24.2678C38.7864 24.7366 38.1505 25 37.4875 25C36.8245 25 36.1886 24.7366 35.7197 24.2678C35.2509 23.7989 34.9875 23.163 34.9875 22.5C34.9875 21.837 35.2509 21.2011 35.7197 20.7322C36.1886 20.2634 36.8245 20 37.4875 20V20ZM44.9875 20C45.6505 20 46.2864 20.2634 46.7553 20.7322C47.2241 21.2011 47.4875 21.837 47.4875 22.5C47.4875 23.163 47.2241 23.7989 46.7553 24.2678C46.2864 24.7366 45.6505 25 44.9875 25C44.3245 25 43.6886 24.7366 43.2197 24.2678C42.7509 23.7989 42.4875 23.163 42.4875 22.5C42.4875 21.837 42.7509 21.2011 43.2197 20.7322C43.6886 20.2634 44.3245 20 44.9875 20Z" fill="white"/>
</svg>
