<svg viewBox="0 0 40 40" fill="none" xmlns="http://www.w3.org/2000/svg">
<path d="M20 21.6667C20.4421 21.6667 20.866 21.4911 21.1786 21.1785C21.4911 20.866 21.6667 20.442 21.6667 20V3.33335C21.6667 2.89133 21.4911 2.4674 21.1786 2.15484C20.866 1.84228 20.4421 1.66669 20 1.66669C19.558 1.66669 19.1341 1.84228 18.8215 2.15484C18.509 2.4674 18.3334 2.89133 18.3334 3.33335V20C18.3334 20.442 18.509 20.866 18.8215 21.1785C19.1341 21.4911 19.558 21.6667 20 21.6667Z" fill="white"/>
<path d="M27.6501 5.1833C27.2566 4.97997 26.7986 4.94125 26.3766 5.07565C25.9547 5.21005 25.6034 5.50657 25.4001 5.89997C25.1967 6.29337 25.158 6.75144 25.2924 7.1734C25.4268 7.59535 25.7233 7.94664 26.1167 8.14997C28.7725 9.52108 30.8905 11.7447 32.1309 14.464C33.3713 17.1833 33.6621 20.2404 32.9566 23.1448C32.2511 26.0491 30.5903 28.6322 28.2406 30.4794C25.891 32.3266 22.9889 33.3308 20.0001 33.3308C17.0112 33.3308 14.1091 32.3266 11.7595 30.4794C9.40984 28.6322 7.74899 26.0491 7.04349 23.1448C6.338 20.2404 6.62879 17.1833 7.86918 14.464C9.10957 11.7447 11.2276 9.52108 13.8834 8.14997C14.0782 8.04929 14.2512 7.91123 14.3927 7.74367C14.5341 7.57611 14.6412 7.38233 14.7077 7.1734C14.7743 6.96446 14.799 6.74447 14.7805 6.52598C14.7621 6.30748 14.7007 6.09476 14.6001 5.89997C14.4994 5.70518 14.3613 5.53212 14.1937 5.39068C14.0262 5.24924 13.8324 5.14219 13.6235 5.07565C13.4145 5.0091 13.1946 4.98435 12.9761 5.00282C12.7576 5.0213 12.5448 5.08262 12.3501 5.1833C9.0312 6.89795 6.38461 9.67785 4.835 13.0769C3.28539 16.4759 2.92262 20.297 3.8049 23.9269C4.68719 27.5569 6.76337 30.7851 9.70025 33.0937C12.6371 35.4023 16.2644 36.6572 20.0001 36.6572C23.7357 36.6572 27.363 35.4023 30.2999 33.0937C33.2367 30.7851 35.3129 27.5569 36.1952 23.9269C37.0775 20.297 36.7147 16.4759 35.1651 13.0769C33.6155 9.67785 30.9689 6.89795 27.6501 5.1833Z" fill="white"/>
</svg>
