<svg viewBox="0 0 40 40" fill="none" xmlns="http://www.w3.org/2000/svg">
<path d="M20 22.5C21.3807 22.5 22.5 21.3807 22.5 20C22.5 18.6193 21.3807 17.5 20 17.5C18.6193 17.5 17.5 18.6193 17.5 20C17.5 21.3807 18.6193 22.5 20 22.5Z" fill="white"/>
<path d="M33.8667 15.6166H32.05C31.8167 15.6166 31.65 15.4333 31.55 15.1833C31.4905 15.0915 31.4588 14.9844 31.4588 14.875C31.4588 14.7655 31.4905 14.6585 31.55 14.5666L32.9 13.3333C33.1646 13.0788 33.3749 12.7733 33.5181 12.4353C33.6613 12.0973 33.7346 11.7338 33.7334 11.3666C33.733 10.9973 33.6591 10.6317 33.5161 10.2912C33.373 9.9507 33.1636 9.64208 32.9 9.38331L30.6667 7.09998C30.408 6.83945 30.1003 6.63269 29.7614 6.49159C29.4224 6.35049 29.0589 6.27785 28.6917 6.27785C28.3246 6.27785 27.961 6.35049 27.6221 6.49159C27.2831 6.63269 26.9754 6.83945 26.7167 7.09998L25.4334 8.33331C25.3314 8.39865 25.2128 8.43338 25.0917 8.43338C24.9706 8.43338 24.852 8.39865 24.75 8.33331C24.6494 8.29578 24.5615 8.23042 24.4966 8.14485C24.4317 8.05927 24.3924 7.95701 24.3834 7.84998V6.13331C24.3837 5.40492 24.1002 4.70507 23.593 4.1823C23.0857 3.65953 22.3948 3.35499 21.6667 3.33331H18.4334C17.6892 3.3333 16.9753 3.62777 16.4476 4.15239C15.9198 4.67702 15.6211 5.38918 15.6167 6.13331V7.94998C15.6167 8.18331 15.4334 8.34998 15.1834 8.44998C15.0916 8.50952 14.9845 8.54121 14.875 8.54121C14.7656 8.54121 14.6585 8.50952 14.5667 8.44998L13.3334 7.09998C12.8055 6.57526 12.0943 6.27642 11.35 6.26665C10.9832 6.26736 10.6202 6.34146 10.2825 6.48457C9.94474 6.62769 9.63904 6.83693 9.38337 7.09998L7.10004 9.33331C6.8319 9.59284 6.61868 9.90363 6.47306 10.2472C6.32745 10.5908 6.25241 10.9601 6.25241 11.3333C6.25241 11.7065 6.32745 12.0758 6.47306 12.4194C6.61868 12.763 6.8319 13.0738 7.10004 13.3333L8.33337 14.5666C8.39871 14.6686 8.43344 14.7872 8.43344 14.9083C8.43344 15.0294 8.39871 15.148 8.33337 15.25C8.29584 15.3506 8.23048 15.4385 8.14491 15.5034C8.05934 15.5684 7.95707 15.6076 7.85004 15.6166H6.13337C5.39077 15.6166 4.67858 15.9116 4.15348 16.4367C3.62837 16.9619 3.33337 17.674 3.33337 18.4166V21.5666C3.33336 22.3108 3.62783 23.0247 4.15246 23.5525C4.67708 24.0802 5.38924 24.3789 6.13337 24.3833H7.95004C8.18337 24.3833 8.35004 24.5666 8.45004 24.8166C8.50958 24.9085 8.54127 25.0156 8.54127 25.125C8.54127 25.2344 8.50958 25.3415 8.45004 25.4333L7.10004 26.6666C6.57532 27.1945 6.27648 27.9058 6.26671 28.65C6.26614 29.0195 6.33958 29.3853 6.48271 29.726C6.62583 30.0666 6.83574 30.3751 7.10004 30.6333L9.33337 32.9C9.59208 33.1605 9.89977 33.3673 10.2387 33.5084C10.5777 33.6495 10.9412 33.7221 11.3084 33.7221C11.6755 33.7221 12.0391 33.6495 12.378 33.5084C12.717 33.3673 13.0247 33.1605 13.2834 32.9L14.5667 31.6666C14.6687 31.6013 14.7873 31.5666 14.9084 31.5666C15.0295 31.5666 15.1481 31.6013 15.25 31.6666C15.3507 31.7042 15.4386 31.7695 15.5035 31.8551C15.5684 31.9407 15.6077 32.043 15.6167 32.15V33.9666C15.6426 34.6918 15.949 35.3785 16.4713 35.8822C16.9937 36.3859 17.6911 36.6671 18.4167 36.6666H21.5667C22.3109 36.6667 23.0248 36.3722 23.5525 35.8476C24.0803 35.3229 24.379 34.6108 24.3834 33.8666V32.05C24.3834 31.8166 24.5667 31.65 24.8167 31.55C24.9085 31.4904 25.0156 31.4588 25.125 31.4588C25.2345 31.4588 25.3416 31.4904 25.4334 31.55L26.7 32.8333C27.2279 33.358 27.9391 33.6569 28.6834 33.6666C29.0502 33.6659 29.4132 33.5918 29.7509 33.4487C30.0887 33.3056 30.3944 33.0964 30.65 32.8333L32.8834 30.6C33.1439 30.3413 33.3507 30.0336 33.4918 29.6946C33.6329 29.3557 33.7055 28.9921 33.7055 28.625C33.7055 28.2578 33.6329 27.8943 33.4918 27.5553C33.3507 27.2164 33.1439 26.9087 32.8834 26.65L31.6667 25.4333C31.6072 25.3415 31.5755 25.2344 31.5755 25.125C31.5755 25.0156 31.6072 24.9085 31.6667 24.8166C31.7042 24.716 31.7696 24.6281 31.8552 24.5632C31.9407 24.4983 32.043 24.459 32.15 24.45H33.9667C34.689 24.4242 35.3733 24.1201 35.8765 23.6014C36.3797 23.0826 36.6629 22.3894 36.6667 21.6666V18.4333C36.6667 17.6892 36.3723 16.9753 35.8476 16.4475C35.323 15.9197 34.6108 15.621 33.8667 15.6166ZM20 25.8333C18.8463 25.8333 17.7185 25.4912 16.7592 24.8502C15.7999 24.2092 15.0523 23.2982 14.6107 22.2323C14.1692 21.1664 14.0537 19.9935 14.2788 18.862C14.5039 17.7304 15.0594 16.691 15.8753 15.8752C16.6911 15.0594 17.7305 14.5038 18.862 14.2787C19.9936 14.0537 21.1665 14.1692 22.2324 14.6107C23.2983 15.0522 24.2093 15.7999 24.8503 16.7592C25.4913 17.7184 25.8334 18.8463 25.8334 20C25.8334 21.5471 25.2188 23.0308 24.1248 24.1248C23.0309 25.2187 21.5471 25.8333 20 25.8333Z" fill="white"/>
</svg>
