<svg viewBox="0 0 75 75" fill="none" xmlns="http://www.w3.org/2000/svg">
    <path
        d="M11.7188 32.8125C11.0971 32.8125 10.501 32.5656 10.0615 32.126C9.62193 31.6865 9.375 31.0904 9.375 30.4688V11.7234C9.375 11.1018 9.62193 10.5057 10.0615 10.0662C10.501 9.62663 11.0971 9.3797 11.7188 9.3797H30.4688C31.0904 9.3797 31.6865 9.62663 32.126 10.0662C32.5656 10.5057 32.8125 11.1018 32.8125 11.7234V30.4688C32.8125 31.0904 32.5656 31.6865 32.126 32.126C31.6865 32.5656 31.0904 32.8125 30.4688 32.8125H11.7188ZM44.5312 32.8125C43.9096 32.8125 43.3135 32.5656 42.874 32.126C42.4344 31.6865 42.1875 31.0904 42.1875 30.4688V11.7234C42.1875 11.1018 42.4344 10.5057 42.874 10.0662C43.3135 9.62663 43.9096 9.3797 44.5312 9.3797H63.2766C63.8982 9.3797 64.4943 9.62663 64.9338 10.0662C65.3734 10.5057 65.6203 11.1018 65.6203 11.7234V30.4688C65.6203 31.0904 65.3734 31.6865 64.9338 32.126C64.4943 32.5656 63.8982 32.8125 63.2766 32.8125H44.5312ZM11.7188 65.625C11.0971 65.625 10.501 65.3781 10.0615 64.9385C9.62193 64.499 9.375 63.9029 9.375 63.2813V44.5313C9.375 43.9097 9.62193 43.3135 10.0615 42.874C10.501 42.4344 11.0971 42.1875 11.7188 42.1875H30.4688C31.0904 42.1875 31.6865 42.4344 32.126 42.874C32.5656 43.3135 32.8125 43.9097 32.8125 44.5313V63.2813C32.8125 63.9029 32.5656 64.499 32.126 64.9385C31.6865 65.3781 31.0904 65.625 30.4688 65.625H11.7188ZM44.5312 65.625C43.9096 65.625 43.3135 65.3781 42.874 64.9385C42.4344 64.499 42.1875 63.9029 42.1875 63.2813V44.5313C42.1875 43.9097 42.4344 43.3135 42.874 42.874C43.3135 42.4344 43.9096 42.1875 44.5312 42.1875H63.2766C63.8982 42.1875 64.4943 42.4344 64.9338 42.874C65.3734 43.3135 65.6203 43.9097 65.6203 44.5313V63.2813C65.6203 63.9029 65.3734 64.499 64.9338 64.9385C64.4943 65.3781 63.8982 65.625 63.2766 65.625H44.5312Z"
        fill="white" />
</svg>