<svg viewBox="0 0 60 60" fill="none" xmlns="http://www.w3.org/2000/svg">
<path d="M30 50C31.3807 50 32.5 48.8807 32.5 47.5C32.5 46.1193 31.3807 45 30 45C28.6193 45 27.5 46.1193 27.5 47.5C27.5 48.8807 28.6193 50 30 50Z" fill="white"/>
<path d="M30 35C26.7643 34.9999 23.6547 36.2545 21.325 38.5C20.8476 38.9608 20.5728 39.5924 20.5611 40.2558C20.5494 40.9192 20.8017 41.5601 21.2625 42.0375C21.7233 42.5149 22.3549 42.7897 23.0183 42.8014C23.6817 42.8131 24.3226 42.5608 24.8 42.1C26.2198 40.8 28.075 40.0789 30 40.0789C31.925 40.0789 33.7803 40.8 35.2 42.1C35.6774 42.5608 36.3183 42.8131 36.9817 42.8014C37.6451 42.7897 38.2767 42.5149 38.7375 42.0375C39.1983 41.5601 39.4506 40.9192 39.4389 40.2558C39.4272 39.5924 39.1524 38.9608 38.675 38.5C36.3453 36.2545 33.2357 34.9999 30 35ZM30 22.5C26.9805 22.502 23.9923 23.1117 21.2135 24.2928C18.4346 25.474 15.9219 27.2024 13.825 29.375C13.5968 29.6163 13.4184 29.9002 13.3 30.2104C13.1815 30.5207 13.1253 30.8512 13.1346 31.1832C13.1439 31.5152 13.2185 31.8421 13.3541 32.1452C13.4897 32.4484 13.6837 32.7218 13.925 32.95C14.4123 33.4108 15.0628 33.6592 15.7332 33.6404C16.0652 33.6311 16.3921 33.5565 16.6952 33.4209C16.9984 33.2853 17.2718 33.0913 17.5 32.85C19.1325 31.1563 21.0896 29.8091 23.2545 28.889C25.4195 27.9688 27.7477 27.4946 30.1 27.4946C32.4523 27.4946 34.7805 27.9688 36.9455 28.889C39.1104 29.8091 41.0675 31.1563 42.7 32.85C42.9315 33.0862 43.2077 33.2742 43.5123 33.4029C43.817 33.5316 44.1442 33.5986 44.475 33.6C44.9636 33.5981 45.4409 33.4532 45.8479 33.183C46.255 32.9129 46.574 32.5294 46.7655 32.0799C46.957 31.6304 47.0126 31.1347 46.9254 30.654C46.8382 30.1733 46.6121 29.7286 46.275 29.375C44.1665 27.1902 41.6375 25.4548 38.8405 24.2733C36.0435 23.0917 33.0363 22.4885 30 22.5Z" fill="white"/>
<path d="M54.3 19.825C47.776 13.5314 39.0648 10.0145 30 10.0145C20.9352 10.0145 12.2239 13.5314 5.69998 19.825C5.27807 20.2941 5.04916 20.9055 5.05915 21.5363C5.06915 22.1672 5.31731 22.7709 5.75387 23.2265C6.19042 23.682 6.78308 23.9556 7.41295 23.9925C8.04282 24.0293 8.66332 23.8266 9.14998 23.425C14.744 18.0178 22.2198 14.9953 30 14.9953C37.7801 14.9953 45.256 18.0178 50.85 23.425C51.3134 23.8717 51.9313 24.1224 52.575 24.125C52.9117 24.1237 53.2448 24.0544 53.5541 23.9212C53.8634 23.7881 54.1426 23.5938 54.375 23.35C54.8308 22.8718 55.0787 22.2325 55.0647 21.572C55.0506 20.9115 54.7757 20.2834 54.3 19.825Z" fill="white"/>
</svg>
