<svg viewBox="0 0 53 53" fill="none" xmlns="http://www.w3.org/2000/svg">
<path d="M41.9583 24.2917H15.7674L23.7837 14.6633C24.1585 14.2124 24.3388 13.631 24.285 13.047C24.2312 12.4631 23.9476 11.9244 23.4966 11.5496C23.0456 11.1748 22.4642 10.9944 21.8803 11.0483C21.2963 11.1021 20.7577 11.3857 20.3828 11.8367L9.34117 25.0867C9.26688 25.1921 9.20045 25.3028 9.14242 25.4179C9.14242 25.5283 9.14242 25.5946 8.98784 25.705C8.88774 25.9582 8.83533 26.2277 8.83325 26.5C8.83533 26.7723 8.88774 27.0418 8.98784 27.295C8.98784 27.4054 8.98783 27.4717 9.14242 27.5821C9.20045 27.6972 9.26688 27.808 9.34117 27.9133L20.3828 41.1633C20.5905 41.4126 20.8505 41.6131 21.1444 41.7505C21.4383 41.8879 21.7588 41.9589 22.0833 41.9583C22.5992 41.9594 23.0993 41.7796 23.4966 41.4504C23.7202 41.265 23.905 41.0374 24.0405 40.7804C24.176 40.5235 24.2595 40.2424 24.2861 39.9531C24.3128 39.6639 24.2822 39.3722 24.1959 39.0948C24.1097 38.8175 23.9696 38.5598 23.7837 38.3367L15.7674 28.7083H41.9583C42.5439 28.7083 43.1056 28.4757 43.5198 28.0615C43.9339 27.6474 44.1666 27.0857 44.1666 26.5C44.1666 25.9143 43.9339 25.3526 43.5198 24.9385C43.1056 24.5243 42.5439 24.2917 41.9583 24.2917Z" fill="white"/>
</svg>
