<svg viewBox="0 0 48 24" fill="none" xmlns="http://www.w3.org/2000/svg">
<path d="M21.8666 23.2333C22.4631 23.7236 23.2112 23.9916 23.9833 23.9916C24.7554 23.9916 25.5035 23.7236 26.1 23.2333L46.1 7.13333C46.4424 6.85826 46.7271 6.51822 46.9377 6.13276C47.1483 5.74731 47.2806 5.32403 47.327 4.88727C47.3735 4.45051 47.3332 4.00887 47.2084 3.58774C47.0836 3.16661 46.8769 2.77429 46.6 2.43333C46.3249 2.09091 45.9849 1.80623 45.5994 1.59565C45.214 1.38507 44.7907 1.25274 44.3539 1.20628C43.9172 1.15982 43.4755 1.20013 43.0544 1.3249C42.6333 1.44967 42.2409 1.65645 41.9 1.93333L24 16.3667L6.13332 1.43333C5.45259 0.867536 4.57499 0.59533 3.69357 0.676596C2.81215 0.757862 1.99911 1.18594 1.43332 1.86667C0.867521 2.54739 0.595315 3.42499 0.676581 4.30641C0.757846 5.18783 1.18593 6.00087 1.86665 6.56666L21.8666 23.2333Z" fill="white"/>
</svg>
