<svg viewBox="0 0 50 50" fill="none" xmlns="http://www.w3.org/2000/svg">
    <path
        d="M39.5833 22.9167H14.875L22.4375 13.8333C22.7911 13.4079 22.9613 12.8594 22.9105 12.3085C22.8597 11.7576 22.5921 11.2495 22.1667 10.8958C21.7412 10.5422 21.1927 10.3721 20.6418 10.4229C20.0909 10.4737 19.5828 10.7412 19.2292 11.1667L8.81251 23.6667C8.74243 23.7661 8.67976 23.8705 8.62501 23.9792C8.62501 24.0833 8.62501 24.1458 8.47918 24.25C8.38475 24.4889 8.3353 24.7432 8.33334 25C8.3353 25.2569 8.38475 25.5111 8.47918 25.75C8.47918 25.8542 8.47918 25.9167 8.62501 26.0208C8.67976 26.1295 8.74243 26.2339 8.81251 26.3333L19.2292 38.8333C19.4251 39.0685 19.6703 39.2576 19.9476 39.3873C20.2249 39.5169 20.5273 39.5838 20.8333 39.5833C21.3201 39.5843 21.7919 39.4148 22.1667 39.1042C22.3776 38.9293 22.552 38.7145 22.6798 38.4721C22.8076 38.2297 22.8864 37.9645 22.9115 37.6916C22.9367 37.4187 22.9078 37.1436 22.8264 36.8819C22.7451 36.6202 22.6129 36.3772 22.4375 36.1667L14.875 27.0833H39.5833C40.1359 27.0833 40.6658 26.8638 41.0565 26.4731C41.4472 26.0824 41.6667 25.5525 41.6667 25C41.6667 24.4475 41.4472 23.9176 41.0565 23.5269C40.6658 23.1362 40.1359 22.9167 39.5833 22.9167Z"
        fill="white" />
</svg>