<svg viewBox="0 0 75 75" fill="none" xmlns="http://www.w3.org/2000/svg">
<g clip-path="url(#clip0_20_37)">
<path d="M37.4382 0.010473C37.4382 0.010473 59.5046 -0.975909 71.2037 21.1179H35.5606C35.5606 21.1179 28.834 20.9019 23.088 29.0305C21.4374 32.4423 19.6632 35.9568 21.6542 42.883C18.786 38.0428 6.42715 16.6068 6.42715 16.6068C6.42715 16.6068 15.1444 0.883917 37.4379 0.010473H37.4382Z" fill="#EF3F36"/>
<path d="M70.0585 56.098C70.0585 56.098 59.8761 75.633 34.8281 74.667C37.923 69.3336 52.6547 43.9205 52.6547 43.9205C52.6547 43.9205 56.214 38.2275 52.0151 29.2051C49.8794 26.0708 47.7026 22.7927 40.6878 21.0455C46.331 20.9945 71.1419 21.0455 71.1419 21.0455C71.1419 21.0455 80.4366 36.4293 70.0585 56.098Z" fill="#FCD900"/>
<path d="M4.97255 56.252C4.97255 56.252 -6.92227 37.7034 6.44765 16.5756C9.53232 21.909 24.264 47.3221 24.264 47.3221C24.264 47.3221 27.4415 53.2412 37.3761 54.1246C41.1624 53.8474 45.1031 53.611 50.1378 48.4421C47.3622 53.3337 34.9102 74.7081 34.9102 74.7081C34.9102 74.7081 16.8773 75.037 4.97226 56.252H4.97255Z" fill="#61BC5B"/>
<path d="M34.8179 74.852L39.8314 54.0119C39.8314 54.0119 45.3404 53.58 49.9623 48.5346C47.0941 53.5599 34.8179 74.852 34.8179 74.852Z" fill="#5AB055"/>
<path d="M20.6432 37.6622C20.6432 28.4755 28.1227 21.0251 37.3453 21.0251C46.568 21.0251 54.0475 28.4755 54.0475 37.6622C54.0475 46.8493 46.568 54.2994 37.3453 54.2994C28.1227 54.2892 20.6432 46.8493 20.6432 37.6622Z" fill="white"/>
<path d="M23.4387 37.6622C23.4387 30.0169 29.6596 23.81 37.3453 23.81C45.0205 23.81 51.2516 30.0067 51.2516 37.6622C51.2516 45.3079 45.031 51.5148 37.3453 51.5148C29.6698 51.5148 23.4387 45.3079 23.4387 37.6622Z" fill="url(#paint0_linear_20_37)"/>
<path d="M71.1314 21.056L50.4882 27.0881C50.4882 27.0881 47.3728 22.5356 40.6776 21.056C46.4857 21.0251 71.1314 21.056 71.1314 21.056Z" fill="#EACA05"/>
<path d="M21.252 42.1223C18.3527 37.1177 6.42715 16.6065 6.42715 16.6065L21.716 31.6713C21.716 31.6713 20.1478 34.8878 20.736 39.4914L21.2517 42.1223H21.252Z" fill="#DF3A32"/>
</g>
<defs>
<linearGradient id="paint0_linear_20_37" x1="37.3446" y1="24.0056" x2="37.3446" y2="50.6809" gradientUnits="userSpaceOnUse">
<stop stop-color="#86BBE5"/>
<stop offset="1" stop-color="#1072BA"/>
</linearGradient>
<clipPath id="clip0_20_37">
<rect width="75" height="75" fill="white"/>
</clipPath>
</defs>
</svg>
