<svg viewBox="0 0 53 53" fill="none" xmlns="http://www.w3.org/2000/svg">
    <path
        d="M29.6137 26.5L39.1096 17.0263C39.5254 16.6104 39.759 16.0464 39.759 15.4583C39.759 14.8703 39.5254 14.3063 39.1096 13.8904C38.6937 13.4746 38.1297 13.241 37.5417 13.241C36.9536 13.241 36.3896 13.4746 35.9737 13.8904L26.5 23.3863L17.0262 13.8904C16.6104 13.4746 16.0464 13.241 15.4583 13.241C14.8702 13.241 14.3062 13.4746 13.8904 13.8904C13.4746 14.3063 13.241 14.8703 13.241 15.4583C13.241 16.0464 13.4746 16.6104 13.8904 17.0263L23.3862 26.5L13.8904 35.9738C13.6834 36.179 13.5191 36.4233 13.407 36.6924C13.2949 36.9615 13.2372 37.2501 13.2372 37.5417C13.2372 37.8332 13.2949 38.1218 13.407 38.3909C13.5191 38.66 13.6834 38.9043 13.8904 39.1096C14.0957 39.3166 14.3399 39.4809 14.609 39.593C14.8782 39.7051 15.1668 39.7628 15.4583 39.7628C15.7498 39.7628 16.0385 39.7051 16.3076 39.593C16.5767 39.4809 16.8209 39.3166 17.0262 39.1096L26.5 29.6138L35.9737 39.1096C36.179 39.3166 36.4233 39.4809 36.6924 39.593C36.9615 39.7051 37.2501 39.7628 37.5417 39.7628C37.8332 39.7628 38.1218 39.7051 38.3909 39.593C38.66 39.4809 38.9043 39.3166 39.1096 39.1096C39.3166 38.9043 39.4808 38.66 39.593 38.3909C39.7051 38.1218 39.7628 37.8332 39.7628 37.5417C39.7628 37.2501 39.7051 36.9615 39.593 36.6924C39.4808 36.4233 39.3166 36.179 39.1096 35.9738L29.6137 26.5Z"
        fill="white" />
</svg>