<svg viewBox="0 0 111 111" fill="none" xmlns="http://www.w3.org/2000/svg">
<path d="M92.5 27.75H50.875L41.625 18.5H18.5C13.4125 18.5 9.25 22.6625 9.25 27.75V46.25H101.75V37C101.75 31.9125 97.5875 27.75 92.5 27.75Z" fill="#FFA000"/>
<path d="M92.5 27.75H18.5C13.4125 27.75 9.25 31.9125 9.25 37V83.25C9.25 88.3375 13.4125 92.5 18.5 92.5H92.5C97.5875 92.5 101.75 88.3375 101.75 83.25V37C101.75 31.9125 97.5875 27.75 92.5 27.75Z" fill="#FFCA28"/>
<path d="M88.25 54.875H68.75C67.4571 54.875 66.2171 55.3886 65.3029 56.3029C64.3886 57.2171 63.875 58.4571 63.875 59.75V79.25C63.875 80.5429 64.3886 81.7829 65.3029 82.6971C66.2171 83.6114 67.4571 84.125 68.75 84.125H88.25C89.5429 84.125 90.7829 83.6114 91.6971 82.6971C92.6114 81.7829 93.125 80.5429 93.125 79.25V59.75C93.125 58.4571 92.6114 57.2171 91.6971 56.3029C90.7829 55.3886 89.5429 54.875 88.25 54.875ZM72 61.375C72.4821 61.375 72.9534 61.518 73.3542 61.7858C73.755 62.0536 74.0675 62.4343 74.252 62.8797C74.4364 63.3251 74.4847 63.8152 74.3907 64.288C74.2966 64.7609 74.0645 65.1952 73.7236 65.5361C73.3827 65.877 72.9484 66.1091 72.4755 66.2032C72.0027 66.2972 71.5126 66.2489 71.0672 66.0645C70.6218 65.88 70.2411 65.5675 69.9733 65.1667C69.7055 64.7659 69.5625 64.2946 69.5625 63.8125C69.5625 63.166 69.8193 62.546 70.2764 62.0889C70.7335 61.6318 71.3535 61.375 72 61.375V61.375ZM89.875 78.9737C89.9109 79.4412 89.76 79.9038 89.4554 80.2602C89.1508 80.6166 88.7173 80.8377 88.25 80.875H68.75L81.0512 69.7925C81.2578 69.6041 81.5273 69.4996 81.8069 69.4996C82.0865 69.4996 82.3559 69.6041 82.5625 69.7925L89.875 77.0725V78.9737Z" fill="white"/>
</svg>
