<svg viewBox="0 0 111 111" fill="none" xmlns="http://www.w3.org/2000/svg">
<path d="M92.5 27.75H50.875L41.625 18.5H18.5C13.4125 18.5 9.25 22.6625 9.25 27.75V46.25H101.75V37C101.75 31.9125 97.5875 27.75 92.5 27.75Z" fill="#FFA000"/>
<path d="M92.5 27.75H18.5C13.4125 27.75 9.25 31.9125 9.25 37V83.25C9.25 88.3375 13.4125 92.5 18.5 92.5H92.5C97.5875 92.5 101.75 88.3375 101.75 83.25V37C101.75 31.9125 97.5875 27.75 92.5 27.75Z" fill="#FFCA28"/>
<path d="M78.5 67.875C79.7856 67.875 81.0423 67.4938 82.1112 66.7796C83.1801 66.0653 84.0132 65.0502 84.5052 63.8624C84.9972 62.6747 85.1259 61.3678 84.8751 60.1069C84.6243 58.846 84.0052 57.6878 83.0962 56.7788C82.1872 55.8698 81.029 55.2507 79.7681 54.9999C78.5072 54.7491 77.2003 54.8778 76.0126 55.3698C74.8248 55.8618 73.8097 56.6949 73.0954 57.7638C72.3812 58.8327 72 60.0894 72 61.375C72 63.0989 72.6848 64.7522 73.9038 65.9712C75.1228 67.1902 76.7761 67.875 78.5 67.875ZM88.25 84.125C88.681 84.125 89.0943 83.9538 89.399 83.6491C89.7038 83.3443 89.875 82.931 89.875 82.5C89.875 79.4832 88.6766 76.5899 86.5433 74.4567C84.4101 72.3234 81.5168 71.125 78.5 71.125C75.4832 71.125 72.5899 72.3234 70.4567 74.4567C68.3234 76.5899 67.125 79.4832 67.125 82.5C67.125 82.931 67.2962 83.3443 67.601 83.6491C67.9057 83.9538 68.319 84.125 68.75 84.125H88.25Z" fill="white"/>
</svg>
