<svg viewBox="0 0 77 77" fill="none" xmlns="http://www.w3.org/2000/svg">
<path d="M38.5 6.41669C29.6546 6.41669 22.4583 13.613 22.4583 22.4584V28.875H19.25C15.7112 28.875 12.8333 31.7529 12.8333 35.2917V64.1667C12.8333 67.7055 15.7112 70.5834 19.25 70.5834H57.75C61.2888 70.5834 64.1666 67.7055 64.1666 64.1667V35.2917C64.1666 31.7529 61.2888 28.875 57.75 28.875H54.5416V22.4584C54.5416 13.613 47.3454 6.41669 38.5 6.41669ZM28.875 22.4584C28.875 17.1518 33.1934 12.8334 38.5 12.8334C43.8066 12.8334 48.125 17.1518 48.125 22.4584V28.875H28.875V22.4584ZM57.7564 64.1667H41.7083V56.8581C43.6173 55.7448 44.9166 53.6979 44.9166 51.3334C44.9166 47.7946 42.0388 44.9167 38.5 44.9167C34.9612 44.9167 32.0833 47.7946 32.0833 51.3334C32.0833 53.6947 33.3827 55.7448 35.2916 56.8581V64.1667H19.25V35.2917H57.75L57.7564 64.1667Z" fill="white"/>
</svg>
