<svg viewBox="0 0 300 300" fill="none" xmlns="http://www.w3.org/2000/svg">
<rect width="300" height="300" fill="white"/>
<path d="M85.712 213.81C74.7313 213.81 65.259 212 57.295 208.38C49.331 204.76 43.1167 199.33 38.652 192.09C34.1873 184.729 31.774 175.498 31.412 164.397C31.2913 159.208 31.231 154.08 31.231 149.012C31.231 143.823 31.2913 138.574 31.412 133.265C31.774 122.405 34.1873 113.295 38.652 105.934C43.2373 98.4527 49.512 92.8417 57.476 89.101C65.5607 85.3603 74.9727 83.49 85.712 83.49C96.3307 83.49 105.622 85.3603 113.586 89.101C121.671 92.8417 128.006 98.4527 132.591 105.934C137.176 113.295 139.59 122.405 139.831 133.265C140.072 138.574 140.193 143.823 140.193 149.012C140.193 154.08 140.072 159.208 139.831 164.397C139.469 175.498 137.056 184.729 132.591 192.09C128.126 199.33 121.912 204.76 113.948 208.38C105.984 212 96.572 213.81 85.712 213.81ZM85.712 190.461C92.7107 190.461 98.4423 188.349 102.907 184.126C107.492 179.782 109.906 172.904 110.147 163.492C110.388 158.183 110.509 153.235 110.509 148.65C110.509 143.944 110.388 138.997 110.147 133.808C110.026 127.533 108.88 122.405 106.708 118.423C104.536 114.441 101.64 111.545 98.02 109.735C94.5207 107.804 90.418 106.839 85.712 106.839C81.006 106.839 76.843 107.804 73.223 109.735C69.603 111.545 66.707 114.441 64.535 118.423C62.4837 122.405 61.3373 127.533 61.096 133.808C60.9753 138.997 60.915 143.944 60.915 148.65C60.915 153.235 60.9753 158.183 61.096 163.492C61.458 172.904 63.8713 179.782 68.336 184.126C72.8007 188.349 78.5927 190.461 85.712 190.461ZM208.272 213.81C196.688 213.81 186.974 212.121 179.131 208.742C171.408 205.363 165.556 200.959 161.574 195.529C157.592 190.099 155.48 184.307 155.239 178.153C155.239 177.188 155.601 176.343 156.325 175.619C157.049 174.774 157.954 174.352 159.04 174.352H178.407C179.975 174.352 181.182 174.714 182.027 175.438C182.871 176.041 183.656 176.826 184.38 177.791C185.224 179.842 186.552 181.833 188.362 183.764C190.292 185.695 192.887 187.324 196.145 188.651C199.403 189.858 203.445 190.461 208.272 190.461C216.115 190.461 221.967 189.194 225.829 186.66C229.811 184.126 231.802 180.687 231.802 176.343C231.802 173.206 230.716 170.672 228.544 168.741C226.492 166.81 223.174 165.061 218.589 163.492C214.124 161.923 208.151 160.234 200.67 158.424C191.62 156.493 183.897 154.02 177.502 151.003C171.227 147.866 166.461 143.884 163.203 139.057C160.065 134.11 158.497 128.016 158.497 120.776C158.497 113.536 160.488 107.141 164.47 101.59C168.452 95.9187 174.063 91.5143 181.303 88.377C188.543 85.119 197.17 83.49 207.186 83.49C215.27 83.49 222.39 84.576 228.544 86.748C234.818 88.92 240.007 91.7557 244.11 95.255C248.333 98.7543 251.531 102.495 253.703 106.477C255.875 110.459 257.021 114.32 257.142 118.061C257.142 119.026 256.78 119.931 256.056 120.776C255.332 121.5 254.427 121.862 253.341 121.862H233.069C231.862 121.862 230.776 121.621 229.811 121.138C228.845 120.655 228.061 119.811 227.458 118.604C226.734 115.467 224.562 112.752 220.942 110.459C217.442 108.046 212.857 106.839 207.186 106.839C201.273 106.839 196.567 107.925 193.068 110.097C189.689 112.269 188 115.587 188 120.052C188 122.948 188.844 125.422 190.534 127.473C192.344 129.404 195.3 131.153 199.403 132.722C203.626 134.17 209.177 135.799 216.055 137.609C226.673 139.781 235.301 142.375 241.938 145.392C248.574 148.409 253.461 152.33 256.599 157.157C259.736 161.863 261.305 167.836 261.305 175.076C261.305 183.161 259.012 190.099 254.427 195.891C249.962 201.683 243.748 206.148 235.784 209.285C227.94 212.302 218.77 213.81 208.272 213.81Z" fill="url(#paint0_linear_124_83)"/>
<path d="M200.672 259C200.276 259 199.952 258.874 199.7 258.622C199.448 258.37 199.322 258.046 199.322 257.65V254.41C199.322 254.122 199.394 253.744 199.538 253.276C199.718 252.772 200.096 252.286 200.672 251.818L207.8 244.744C210.428 242.728 212.552 241.018 214.172 239.614C215.828 238.21 217.052 236.932 217.844 235.78C218.636 234.628 219.032 233.512 219.032 232.432C219.032 231.028 218.636 229.876 217.844 228.976C217.088 228.04 215.846 227.572 214.118 227.572C212.966 227.572 211.994 227.824 211.202 228.328C210.446 228.796 209.852 229.426 209.42 230.218C208.988 231.01 208.7 231.874 208.556 232.81C208.448 233.278 208.214 233.602 207.854 233.782C207.53 233.962 207.188 234.052 206.828 234.052H201.104C200.744 234.052 200.456 233.944 200.24 233.728C200.024 233.476 199.916 233.206 199.916 232.918C199.952 231.262 200.294 229.696 200.942 228.22C201.626 226.744 202.58 225.43 203.804 224.278C205.028 223.126 206.504 222.226 208.232 221.578C209.96 220.894 211.922 220.552 214.118 220.552C217.142 220.552 219.68 221.056 221.732 222.064C223.784 223.036 225.332 224.386 226.376 226.114C227.42 227.842 227.942 229.84 227.942 232.108C227.942 233.836 227.582 235.438 226.862 236.914C226.178 238.39 225.17 239.812 223.838 241.18C222.506 242.512 220.922 243.898 219.086 245.338L212.714 251.71H227.402C227.798 251.71 228.122 251.836 228.374 252.088C228.626 252.34 228.752 252.664 228.752 253.06V257.65C228.752 258.046 228.626 258.37 228.374 258.622C228.122 258.874 227.798 259 227.402 259H200.672ZM249.261 259.54C246.669 259.54 244.437 259.18 242.565 258.46C240.729 257.704 239.199 256.678 237.975 255.382C236.787 254.05 235.887 252.52 235.275 250.792C234.699 249.028 234.357 247.156 234.249 245.176C234.213 244.204 234.177 243.124 234.141 241.936C234.141 240.712 234.141 239.488 234.141 238.264C234.177 237.04 234.213 235.924 234.249 234.916C234.321 232.936 234.663 231.082 235.275 229.354C235.923 227.626 236.859 226.114 238.083 224.818C239.307 223.522 240.837 222.514 242.673 221.794C244.545 221.038 246.741 220.66 249.261 220.66C251.781 220.66 253.959 221.038 255.795 221.794C257.631 222.514 259.161 223.522 260.385 224.818C261.609 226.114 262.527 227.626 263.139 229.354C263.787 231.082 264.165 232.936 264.273 234.916C264.309 235.924 264.327 237.04 264.327 238.264C264.363 239.488 264.363 240.712 264.327 241.936C264.327 243.124 264.309 244.204 264.273 245.176C264.165 247.156 263.805 249.028 263.193 250.792C262.581 252.52 261.663 254.05 260.439 255.382C259.251 256.678 257.721 257.704 255.849 258.46C254.013 259.18 251.817 259.54 249.261 259.54ZM249.261 252.52C251.349 252.52 252.879 251.836 253.851 250.468C254.823 249.1 255.345 247.246 255.417 244.906C255.453 243.862 255.471 242.782 255.471 241.666C255.507 240.55 255.507 239.434 255.471 238.318C255.471 237.202 255.453 236.158 255.417 235.186C255.345 232.954 254.823 231.136 253.851 229.732C252.879 228.328 251.349 227.608 249.261 227.572C247.137 227.608 245.589 228.328 244.617 229.732C243.681 231.136 243.177 232.954 243.105 235.186C243.069 236.158 243.033 237.202 242.997 238.318C242.997 239.434 242.997 240.55 242.997 241.666C243.033 242.782 243.069 243.862 243.105 244.906C243.177 247.246 243.699 249.1 244.671 250.468C245.643 251.836 247.173 252.52 249.261 252.52Z" fill="url(#paint1_linear_124_83)"/>
<defs>
<linearGradient id="paint0_linear_124_83" x1="10.8182" y1="79.169" x2="375.342" y2="227.424" gradientUnits="userSpaceOnUse">
<stop stop-color="#C91BA2"/>
<stop offset="1" stop-color="#5F6FE2"/>
</linearGradient>
<linearGradient id="paint1_linear_124_83" x1="193.773" y1="219.817" x2="300.016" y2="261.518" gradientUnits="userSpaceOnUse">
<stop stop-color="#C91BA2"/>
<stop offset="1" stop-color="#5F6FE2"/>
</linearGradient>
</defs>
</svg>
