<svg viewBox="0 0 60 60" fill="none" xmlns="http://www.w3.org/2000/svg">
    <path
        d="M42.275 35.2L45.875 38.8C47.7677 36.1961 48.7726 33.0525 48.7411 29.8336C48.7095 26.6146 47.6433 23.4913 45.7 20.925C45.2823 20.4078 44.6762 20.0777 44.0152 20.0074C43.3541 19.9371 42.6922 20.1323 42.175 20.55C41.6578 20.9677 41.3278 21.5737 41.2575 22.2348C41.1871 22.8959 41.3823 23.5578 41.8 24.075C42.9731 25.6733 43.6446 27.5844 43.7292 29.5652C43.8138 31.5461 43.3076 33.5074 42.275 35.2Z"
        fill="white" />
    <path
        d="M52.5 30C52.4476 34.0874 50.859 38.0053 48.05 40.975L51.6 44.525C55.3396 40.6081 57.449 35.4152 57.5 30C57.4539 26.7304 56.6753 23.5128 55.2216 20.5838C53.7679 17.6548 51.6761 15.0889 49.1 13.075C48.8472 12.8649 48.5555 12.7066 48.2415 12.6093C47.9276 12.5119 47.5975 12.4773 47.2702 12.5075C46.9429 12.5376 46.6247 12.632 46.3338 12.7851C46.043 12.9383 45.7851 13.1472 45.575 13.4C45.3649 13.6528 45.2066 13.9445 45.1092 14.2585C45.0119 14.5724 44.9773 14.9025 45.0074 15.2298C45.0376 15.5572 45.132 15.8753 45.2851 16.1662C45.4383 16.4571 45.6472 16.7149 45.9 16.925C47.9051 18.4747 49.5383 20.453 50.6803 22.7153C51.8222 24.9776 52.444 27.4665 52.5 30ZM37.5 30.425V10C37.5038 9.54182 37.3817 9.09138 37.1469 8.69791C36.912 8.30444 36.5736 7.98307 36.1685 7.76891C35.7634 7.55476 35.3073 7.45605 34.8499 7.48358C34.3925 7.51111 33.9515 7.66382 33.575 7.92502L22.5 15.5L37.5 30.425ZM11.85 18.925H5C4.33696 18.925 3.70107 19.1884 3.23223 19.6572C2.76339 20.1261 2.5 20.762 2.5 21.425V38.575C2.5 39.2381 2.76339 39.8739 3.23223 40.3428C3.70107 40.8116 4.33696 41.075 5 41.075H17.5L33.525 52.075C33.964 52.3591 34.4772 52.507 35 52.5C35.663 52.5 36.2989 52.2366 36.7678 51.7678C37.2366 51.2989 37.5 50.6631 37.5 50V44.575L11.85 18.925ZM11.775 8.22501C11.5419 7.99192 11.2652 7.80702 10.9606 7.68087C10.6561 7.55471 10.3296 7.48979 10 7.48979C9.67035 7.48979 9.34393 7.55471 9.03938 7.68087C8.73482 7.80702 8.4581 7.99192 8.225 8.22501C7.75424 8.69577 7.48977 9.33426 7.48977 10C7.48977 10.6658 7.75424 11.3043 8.225 11.775L48.225 51.775C48.4574 52.0093 48.7339 52.1953 49.0386 52.3222C49.3432 52.4492 49.67 52.5145 50 52.5145C50.33 52.5145 50.6568 52.4492 50.9614 52.3222C51.2661 52.1953 51.5426 52.0093 51.775 51.775C52.0093 51.5426 52.1953 51.2661 52.3222 50.9615C52.4492 50.6568 52.5145 50.33 52.5145 50C52.5145 49.67 52.4492 49.3432 52.3222 49.0386C52.1953 48.7339 52.0093 48.4574 51.775 48.225L11.775 8.22501Z"
        fill="white" />
</svg>